<?xml version="1.0" encoding="utf-8"?>
<!-- Generator: Adobe Illustrator 24.0.2, SVG Export Plug-In . SVG Version: 6.00 Build 0)  -->
<svg version="1.1" id="Layer_1" xmlns="http://www.w3.org/2000/svg"
	xmlns:xlink="http://www.w3.org/1999/xlink" x="0px" y="0px"
	viewBox="0 0 816 242.4" style="enable-background:new 0 0 816 242.4;" xml:space="preserve"
	width="200" height="60">
<style type="text/css">
	.st0{fill:#003EB7;}
	.st1{fill:#FCC04C;}
</style>
<g>
	<g>
		<path class="st0" d="M5.6,199l17.3-31.8c16.6,9.5,35.6,17.1,52.8,17.1c9.7,0,16.4-3.6,16.4-9.7c0-8-7.8-10.3-24.6-13.9
			C33.6,153.8,9.2,142,9.2,112.3c0-30.9,27.6-46.7,62.5-46.7c24,0,45,6.3,61.5,19.8l-20.4,28c-11.8-8.4-26.3-13.3-40-13.3
			c-10.5,0-17.3,2.5-17.3,9.7c0,5.9,6.1,9.9,24.2,13.7c37.9,7.8,58.3,18.7,58.3,46.7c0,30.7-27.6,48.6-63.1,48.6
			C46.2,218.8,21.6,210.6,5.6,199z"/>
		<path class="st0" d="M275.6,68.5v38.1h-44v109.2h-46.1V106.6h-43.8V68.5H275.6z"/>
		<path class="st0" d="M553,215.8l-30.5-41.7h-12.4v41.7h-45.9V68.5h67.3c42.1,0,68,20,68,53c0,22.1-11.4,38.1-31.4,46.3l35.3,48
			L553,215.8L553,215.8z M510.1,105.1v34.9h20.2c14.3,0,23.4-5.9,23.4-17.7c0-11.2-9-17.3-23.4-17.3L510.1,105.1L510.1,105.1z"/>
		<path class="st0" d="M399.9,50c-15.1-15.1-29.5-29.4-33.7-45.6c-4.3,16.2-18.7,30.5-33.7,45.6c-22.6,22.6-48.2,48.2-48.2,86.6
			c-0.1,45.3,36.4,82.1,81.7,82.2c45.3,0.1,82.1-36.4,82.2-81.7c0-0.2,0-0.4,0-0.5C448.2,98.2,422.5,72.6,399.9,50"/>
		<polygon class="st0" points="786,68.5 743.5,68.5 701.8,135.7 660,68.5 617.2,68.5 617.2,215.8 661,215.8 661,140.5 694.9,195.4
			708.8,195.4 742.2,140.7 742.2,215.8 786,215.8 786,92 810.9,68.5 		"/>
	</g>
	<g>
		<path class="st1" d="M333.2,128.6l19.3,4.9l-28.9,41.3c-1.5,2.2-0.3,5.2,2.3,5.8l21,4.3l-28.7,49.1c-2.1,3.6,2.3,7.4,5.5,4.8
			l69.5-56c2.4-1.9,1.5-5.7-1.4-6.5l-24.4-6.2l37.9-35.5c2.1-2,1.2-5.6-1.6-6.3l-27.5-7l28.2-46.9c2.1-3.5-2.2-7.4-5.5-4.8
			l-66.9,52.7C329.5,124,330.3,127.8,333.2,128.6z"/>
	</g>
</g>
</svg>
