<svg xmlns="http://www.w3.org/2000/svg" viewBox="-293 387.2 23.2 18.8" width="20" height="20">
  <path fill="#98abb9"
    d="M-269.8 389.4c-.9.4-1.8.6-2.7.7 1-.6 1.7-1.5 2.1-2.6-.9.5-1.9.9-3 1.2-1-.9-2.2-1.5-3.6-1.5-2.6 0-4.8 2.1-4.8 4.8 0 .4 0 .7.1 1.1-3.8-.3-7.3-2.2-9.7-5-.4.7-.6 1.5-.6 2.4 0 1.6.8 3.1 2.1 4-.8-.1-1.5-.3-2.2-.7v.1c0 2.3 1.6 4.2 3.8 4.7-.4.1-.8.2-1.3.2-.3 0-.6 0-.9-.1.7 1.8 2.5 3.2 4.5 3.2-1.6 1.3-3.7 2-5.9 2-.4 0-.8 0-1.1-.1 2.1 1.3 4.6 2.1 7.3 2.1 8.7 0 13.5-7.2 13.5-13.5v-.6c.9-.6 1.7-1.4 2.4-2.4z"></path>
</svg>
